/* XPM */
static char *_511436751652[] = {
/* columns rows colors chars-per-pixel */
"32 32 194 2 ",
"   c #00041C",
".  c #060E1A",
"X  c #09101C",
"o  c #000224",
"O  c #000629",
"+  c #000A2C",
"@  c #06172C",
"#  c #000C32",
"$  c #001134",
"%  c #00153B",
"&  c #00193D",
"*  c #0C2B3C",
"=  c #14213E",
"-  c #001C43",
";  c #001C49",
":  c #001F50",
">  c #00244C",
",  c #002648",
"<  c #132443",
"1  c #122C4D",
"2  c #102E43",
"3  c #002652",
"4  c #002B54",
"5  c #00225E",
"6  c #002C5B",
"7  c #003256",
"8  c #00325C",
"9  c #003A5D",
"0  c #0E365A",
"q  c #113154",
"w  c #1B3A53",
"e  c #012461",
"r  c #002B64",
"t  c #003563",
"y  c #013B63",
"u  c #0C3D61",
"i  c #00316B",
"p  c #013D6A",
"a  c #003C73",
"s  c #003770",
"d  c #2D414E",
"f  c #264659",
"g  c #014266",
"h  c #02436A",
"j  c #014B6D",
"k  c #004472",
"l  c #004B75",
"z  c #00467A",
"x  c #004C7B",
"c  c #005374",
"v  c #00547D",
"b  c #015C7A",
"n  c #01627E",
"m  c #4A5A67",
"M  c #515B64",
"N  c #485E71",
"B  c #5E7079",
"V  c #556673",
"C  c #6B757B",
"Z  c #004D80",
"A  c #015B84",
"S  c #005D8A",
"D  c #005484",
"F  c #016582",
"G  c #026C85",
"H  c #016C8B",
"J  c #0A6680",
"K  c #007487",
"L  c #03748B",
"P  c #017B8C",
"I  c #0E7D8F",
"U  c #027592",
"Y  c #047D95",
"T  c #037B9A",
"R  c #2C7D88",
"E  c #536F82",
"W  c #567B8D",
"Q  c #547487",
"!  c #567F91",
"~  c #676E81",
"^  c #647481",
"/  c #697B86",
"(  c #717D85",
")  c #707787",
"_  c #757E91",
"`  c #02818F",
"'  c #048493",
"]  c #03849B",
"[  c #078C9B",
"{  c #07969A",
"}  c #048CA3",
"|  c #0287A6",
" . c #0594A3",
".. c #069BA4",
"X. c #059BA9",
"o. c #0896AC",
"O. c #159BA4",
"+. c #0098B5",
"@. c #08A5AD",
"#. c #0AACAD",
"$. c #07A2A7",
"%. c #0BB2AD",
"&. c #0CA5B5",
"*. c #01A3BD",
"=. c #0DACB9",
"-. c #0EB2BA",
";. c #17BAB9",
":. c #48828C",
">. c #508285",
",. c #4C8492",
"<. c #548495",
"1. c #6F828D",
"2. c #7B868C",
"3. c #628598",
"4. c #7B8396",
"5. c #7A8599",
"6. c #758296",
"7. c #6C999E",
"8. c #7D949E",
"9. c #7A9FA1",
"0. c #04ABC1",
"q. c #0BB4C2",
"w. c #0CBAC5",
"e. c #0DBDC9",
"r. c #04B4C1",
"t. c #12BCC1",
"y. c #0DC1C4",
"u. c #12C1C5",
"i. c #14C4C8",
"p. c #1BCCC7",
"a. c #1FD2CC",
"s. c #23C5CA",
"d. c #22D8CD",
"f. c #22DCD1",
"g. c #878C8F",
"h. c #839297",
"j. c #8B959A",
"k. c #8A9398",
"l. c #929B9E",
"z. c #929DA3",
"x. c #8FA3A7",
"c. c #9FA3A5",
"v. c #96A5AA",
"b. c #A4A8AA",
"n. c #ADB7BB",
"m. c #A6B6BB",
"M. c #BDB9B7",
"N. c #B4B7B9",
"B. c #B3BABD",
"V. c #B2B3B2",
"C. c #B8ACAA",
"Z. c #C8C3BE",
"A. c #AABEC1",
"S. c #B8BFC2",
"D. c #8FC6C8",
"F. c #8CDADD",
"G. c #90D6D8",
"H. c #BEC3C5",
"J. c #B7C5CB",
"K. c #A9C4C9",
"L. c #BCE5E5",
"P. c #C3C5C5",
"I. c #C6CACC",
"U. c #CCCECE",
"Y. c #C8C5C5",
"T. c #D2CCCA",
"R. c #CED2D4",
"E. c #C8D8DD",
"W. c #DCD8D6",
"Q. c #DBDBDC",
"!. c #D4D6D8",
"~. c #E1DCDA",
"^. c #E2E0DF",
"/. c #CEDDE4",
"(. c #D2DDE4",
"). c #D9DEE1",
"_. c #C2EBEC",
"`. c #D8E4E9",
"'. c #D2EFF0",
"]. c #DBF2F3",
"[. c #D5F3F3",
"{. c #E4E4E5",
"}. c #E4E9EC",
"|. c #EBEBEC",
" X c #F3F0EF",
".X c #ECEEF0",
"XX c #E7ECF0",
"oX c #EDF2F5",
"OX c #E7F9FA",
"+X c #F4F4F4",
"@X c #F6F6F8",
"#X c #FEFFFE",
"$X c #F8F8F7",
"%X c None",
/* pixels */
"%X%X%X%X%X%X%X%X%X%X%X%X%X%X%X%X%X%X%X%X%X%X%X%X%X%X%X%X%X%X%X%X",
"%X%X%X%X%X%X%X%Xs.s.%X%X%X%X%X%X%X%X%X%X%X%X%X%X%X%X%X%X%X%X%X%X",
"%X%X%X%X%X%X%Xw.q.w.e.u.u.%X%X%X%X%X%X%X%X%X%X%X%X%X%X%X%X%X%X%X",
"%X%X%X%X%X%X%Xe.e.w.e.u.u.u.i.i.%X%X%X%X%X%X%X%X%X%X%X%X%X%X%X%X",
"%X%X%X%X%X%XA T T ] }  .o.o.&.&.-.-.q.t.%X%X%X%X%X%X%X%X%X%X%X%X",
"%X%X%X%X%Xz l k l v D A H H H U T ] ] }  .X.@.-.t.p.d.d.%X%X%X%X",
"%X%X%X%X%Xz p g h j l c v c b F F H H L P P ' ' [ { ;.p.%X%X%X%X",
"%X%X%X%X%Xk 9 9 y g g j j c c c b b F F G G K K K ` $.%.u.i.%X%X",
"%X%X%X%X%Xk 7 u J././.E.`./././._.`.`.E.J.m.v.h.:.K ..#.;.u.y.%X",
"%X%X%X%X%Xp 7 u oX#X XC {.#X#X#X#XQ.#X#X+X^.Y.C.:.K ..#.w.w.w.%X",
"%X%X%X%X%Xy 7 u }.#XN.B./ $X#X#XQ.V v.#X@X{.U.M.:.G { @.q.q.r.%X",
"%X%X%X%X%X8 3 0 XX$Xb.#Xn.2.#X+Xg.{.m !.#X|.W.Y.,.G  .@.0.0.%X%X",
"%X%X%X%XA 8 3 0 +XI.I.#X#Xk.x.c.W.#XS.C #X X^.T.<.n [ X.*.*.%X%X",
"%X%X%X%Xv 6 > q .XR.g.|.#X]./ x.#X$XC , `.#X{.T.<.c ] X.*.*.%X%X",
"%X%X%X%Xl 4 > q }.#XI./ R.OX].[.D.M   3.+X$X{.W.<.c '  .+.%X%X%X",
"%X%X%XS k 4 - q .X#X#X{.( A.#XL.7.@ 8.#X#X$X|.~.<.j Y [ +.%X%X%X",
"%X%X%XD h 3 - 1 |.#X#X#Xb.J.G.L.[.8.H.#X#X$X|.~.<.g I ] | %X%X%X",
"%X%X%XZ p > & 1 XX#X#XQ.l.F.>.M K.[.z.H.#X$X|.^.! 9 L ] %X%X%X%X",
"%X%X%Xz t ; & 1 |.#X$Xj.oX7.. f 1.h..Xv.I.#X|.~.W 9 G Y %X%X%X%X",
"%X%Xa a 6 > & < |.#XN.U.Y.X f }.#XV.B n.x.R. XW.Q 7 G I %X%X%X%X",
"%X%Xi a 5 ; % < .X+Xb.H.X f }.#X#X#X.Xh./ m B.W.E 4 J  .%X%X%X%X",
"%X%Xr i 3 - $ = @XH.j.@ w `.#X#X#X#X#X#X).( d V.E 4 b ;.%X%X%X%X",
"%Xe e r 3 - + < }.C * 2 (.#X#X#X#X#X#X#X#X$XY.M.V > J %X%X%X%X%X",
"%Xe : e ; - + = +XB.f Q.#X#X#X#X#X#X#X#X#X|.W.Z.N , I %X%X%X%X%X",
"%X%Xe e ; % + @ ~ ) m 4._ _ 4.4.5.5.5.5._ ) ^ V w - O.%X%X%X%X%X",
"%X%X%X%Xi 5 $ O   o O o O O O + + # # # % % % & & , ;.%X%X%X%X%X",
"%X%X%X%Xz Z l k y 3 ; ; ; > 3 4 6 6 6 t t t u p y J d.%X%X%X%X%X",
"%X%X%X%X%X%X%X%X%X%XS l 5 3 5 6 r 6 t t p p p a h O.f.%X%X%X%X%X",
"%X%X%X%X%X%X%X%X%X%X%X%X%X%X%Xe 5 5 e e r r r i r %X%X%X%X%X%X%X",
"%X%X%X%X%X%X%X%X%X%X%X%X%X%X%X%X%X%X%X: : 5 e e e %X%X%X%X%X%X%X",
"%X%X%X%X%X%X%X%X%X%X%X%X%X%X%X%X%X%X%X%X%X%Xe 5 %X%X%X%X%X%X%X%X",
"%X%X%X%X%X%X%X%X%X%X%X%X%X%X%X%X%X%X%X%X%X%X%X%X%X%X%X%X%X%X%X%X"
};
